solid annulus
  facet normal 0.000000e+00 0.000000e+00 1.000000e+00
    outer loop
      vertex 0.000000e+00 0.000000e+00 -3.000000e-02
      vertex 3.000000e-02 0.000000e+00 -3.000000e-02
      vertex 2.974335e-02 3.915786e-03 -3.000000e-02
    endloop
  endfacet
  facet normal 0.000000e+00 0.000000e+00 1.000000e+00
    outer loop
      vertex 0.000000e+00 0.000000e+00 -3.000000e-02
      vertex 2.974335e-02 3.915786e-03 -3.000000e-02
      vertex 2.897777e-02 7.764571e-03 -3.000000e-02
    endloop
  endfacet
  facet normal 0.000000e+00 0.000000e+00 1.000000e+00
    outer loop
      vertex 0.000000e+00 0.000000e+00 -3.000000e-02
      vertex 2.897777e-02 7.764571e-03 -3.000000e-02
      vertex 2.771639e-02 1.148050e-02 -3.000000e-02
    endloop
  endfacet
  facet normal 0.000000e+00 0.000000e+00 1.000000e+00
    outer loop
      vertex 0.000000e+00 0.000000e+00 -3.000000e-02
      vertex 2.771639e-02 1.148050e-02 -3.000000e-02
      vertex 2.598076e-02 1.500000e-02 -3.000000e-02
    endloop
  endfacet
  facet normal 0.000000e+00 0.000000e+00 1.000000e+00
    outer loop
      vertex 0.000000e+00 0.000000e+00 -3.000000e-02
      vertex 2.598076e-02 1.500000e-02 -3.000000e-02
      vertex 2.380060e-02 1.826284e-02 -3.000000e-02
    endloop
  endfacet
  facet normal 0.000000e+00 0.000000e+00 1.000000e+00
    outer loop
      vertex 0.000000e+00 0.000000e+00 -3.000000e-02
      vertex 2.380060e-02 1.826284e-02 -3.000000e-02
      vertex 2.121320e-02 2.121320e-02 -3.000000e-02
    endloop
  endfacet
  facet normal 0.000000e+00 0.000000e+00 1.000000e+00
    outer loop
      vertex 0.000000e+00 0.000000e+00 -3.000000e-02
      vertex 2.121320e-02 2.121320e-02 -3.000000e-02
      vertex 1.826284e-02 2.380060e-02 -3.000000e-02
    endloop
  endfacet
  facet normal 0.000000e+00 0.000000e+00 1.000000e+00
    outer loop
      vertex 0.000000e+00 0.000000e+00 -3.000000e-02
      vertex 1.826284e-02 2.380060e-02 -3.000000e-02
      vertex 1.500000e-02 2.598076e-02 -3.000000e-02
    endloop
  endfacet
  facet normal 0.000000e+00 0.000000e+00 1.000000e+00
    outer loop
      vertex 0.000000e+00 0.000000e+00 -3.000000e-02
      vertex 1.500000e-02 2.598076e-02 -3.000000e-02
      vertex 1.148050e-02 2.771639e-02 -3.000000e-02
    endloop
  endfacet
  facet normal 0.000000e+00 0.000000e+00 1.000000e+00
    outer loop
      vertex 0.000000e+00 0.000000e+00 -3.000000e-02
      vertex 1.148050e-02 2.771639e-02 -3.000000e-02
      vertex 7.764571e-03 2.897777e-02 -3.000000e-02
    endloop
  endfacet
  facet normal 0.000000e+00 0.000000e+00 1.000000e+00
    outer loop
      vertex 0.000000e+00 0.000000e+00 -3.000000e-02
      vertex 7.764571e-03 2.897777e-02 -3.000000e-02
      vertex 3.915786e-03 2.974335e-02 -3.000000e-02
    endloop
  endfacet
  facet normal 0.000000e+00 0.000000e+00 1.000000e+00
    outer loop
      vertex 0.000000e+00 0.000000e+00 -3.000000e-02
      vertex 3.915786e-03 2.974335e-02 -3.000000e-02
      vertex 1.836970e-18 3.000000e-02 -3.000000e-02
    endloop
  endfacet
  facet normal 0.000000e+00 0.000000e+00 1.000000e+00
    outer loop
      vertex 0.000000e+00 0.000000e+00 -3.000000e-02
      vertex 1.836970e-18 3.000000e-02 -3.000000e-02
      vertex -3.915786e-03 2.974335e-02 -3.000000e-02
    endloop
  endfacet
  facet normal 0.000000e+00 0.000000e+00 1.000000e+00
    outer loop
      vertex 0.000000e+00 0.000000e+00 -3.000000e-02
      vertex -3.915786e-03 2.974335e-02 -3.000000e-02
      vertex -7.764571e-03 2.897777e-02 -3.000000e-02
    endloop
  endfacet
  facet normal 0.000000e+00 0.000000e+00 1.000000e+00
    outer loop
      vertex 0.000000e+00 0.000000e+00 -3.000000e-02
      vertex -7.764571e-03 2.897777e-02 -3.000000e-02
      vertex -1.148050e-02 2.771639e-02 -3.000000e-02
    endloop
  endfacet
  facet normal 0.000000e+00 0.000000e+00 1.000000e+00
    outer loop
      vertex 0.000000e+00 0.000000e+00 -3.000000e-02
      vertex -1.148050e-02 2.771639e-02 -3.000000e-02
      vertex -1.500000e-02 2.598076e-02 -3.000000e-02
    endloop
  endfacet
  facet normal 0.000000e+00 0.000000e+00 1.000000e+00
    outer loop
      vertex 0.000000e+00 0.000000e+00 -3.000000e-02
      vertex -1.500000e-02 2.598076e-02 -3.000000e-02
      vertex -1.826284e-02 2.380060e-02 -3.000000e-02
    endloop
  endfacet
  facet normal 0.000000e+00 0.000000e+00 1.000000e+00
    outer loop
      vertex 0.000000e+00 0.000000e+00 -3.000000e-02
      vertex -1.826284e-02 2.380060e-02 -3.000000e-02
      vertex -2.121320e-02 2.121320e-02 -3.000000e-02
    endloop
  endfacet
  facet normal 0.000000e+00 0.000000e+00 1.000000e+00
    outer loop
      vertex 0.000000e+00 0.000000e+00 -3.000000e-02
      vertex -2.121320e-02 2.121320e-02 -3.000000e-02
      vertex -2.380060e-02 1.826284e-02 -3.000000e-02
    endloop
  endfacet
  facet normal 0.000000e+00 0.000000e+00 1.000000e+00
    outer loop
      vertex 0.000000e+00 0.000000e+00 -3.000000e-02
      vertex -2.380060e-02 1.826284e-02 -3.000000e-02
      vertex -2.598076e-02 1.500000e-02 -3.000000e-02
    endloop
  endfacet
  facet normal 0.000000e+00 0.000000e+00 1.000000e+00
    outer loop
      vertex 0.000000e+00 0.000000e+00 -3.000000e-02
      vertex -2.598076e-02 1.500000e-02 -3.000000e-02
      vertex -2.771639e-02 1.148050e-02 -3.000000e-02
    endloop
  endfacet
  facet normal 0.000000e+00 0.000000e+00 1.000000e+00
    outer loop
      vertex 0.000000e+00 0.000000e+00 -3.000000e-02
      vertex -2.771639e-02 1.148050e-02 -3.000000e-02
      vertex -2.897777e-02 7.764571e-03 -3.000000e-02
    endloop
  endfacet
  facet normal 0.000000e+00 0.000000e+00 1.000000e+00
    outer loop
      vertex 0.000000e+00 0.000000e+00 -3.000000e-02
      vertex -2.897777e-02 7.764571e-03 -3.000000e-02
      vertex -2.974335e-02 3.915786e-03 -3.000000e-02
    endloop
  endfacet
  facet normal 0.000000e+00 0.000000e+00 1.000000e+00
    outer loop
      vertex 0.000000e+00 0.000000e+00 -3.000000e-02
      vertex -2.974335e-02 3.915786e-03 -3.000000e-02
      vertex -3.000000e-02 3.673940e-18 -3.000000e-02
    endloop
  endfacet
  facet normal 0.000000e+00 0.000000e+00 1.000000e+00
    outer loop
      vertex 0.000000e+00 0.000000e+00 -3.000000e-02
      vertex -3.000000e-02 3.673940e-18 -3.000000e-02
      vertex -2.974335e-02 -3.915786e-03 -3.000000e-02
    endloop
  endfacet
  facet normal 0.000000e+00 0.000000e+00 1.000000e+00
    outer loop
      vertex 0.000000e+00 0.000000e+00 -3.000000e-02
      vertex -2.974335e-02 -3.915786e-03 -3.000000e-02
      vertex -2.897777e-02 -7.764571e-03 -3.000000e-02
    endloop
  endfacet
  facet normal 0.000000e+00 0.000000e+00 1.000000e+00
    outer loop
      vertex 0.000000e+00 0.000000e+00 -3.000000e-02
      vertex -2.897777e-02 -7.764571e-03 -3.000000e-02
      vertex -2.771639e-02 -1.148050e-02 -3.000000e-02
    endloop
  endfacet
  facet normal 0.000000e+00 0.000000e+00 1.000000e+00
    outer loop
      vertex 0.000000e+00 0.000000e+00 -3.000000e-02
      vertex -2.771639e-02 -1.148050e-02 -3.000000e-02
      vertex -2.598076e-02 -1.500000e-02 -3.000000e-02
    endloop
  endfacet
  facet normal 0.000000e+00 0.000000e+00 1.000000e+00
    outer loop
      vertex 0.000000e+00 0.000000e+00 -3.000000e-02
      vertex -2.598076e-02 -1.500000e-02 -3.000000e-02
      vertex -2.380060e-02 -1.826284e-02 -3.000000e-02
    endloop
  endfacet
  facet normal 0.000000e+00 0.000000e+00 1.000000e+00
    outer loop
      vertex 0.000000e+00 0.000000e+00 -3.000000e-02
      vertex -2.380060e-02 -1.826284e-02 -3.000000e-02
      vertex -2.121320e-02 -2.121320e-02 -3.000000e-02
    endloop
  endfacet
  facet normal 0.000000e+00 0.000000e+00 1.000000e+00
    outer loop
      vertex 0.000000e+00 0.000000e+00 -3.000000e-02
      vertex -2.121320e-02 -2.121320e-02 -3.000000e-02
      vertex -1.826284e-02 -2.380060e-02 -3.000000e-02
    endloop
  endfacet
  facet normal 0.000000e+00 0.000000e+00 1.000000e+00
    outer loop
      vertex 0.000000e+00 0.000000e+00 -3.000000e-02
      vertex -1.826284e-02 -2.380060e-02 -3.000000e-02
      vertex -1.500000e-02 -2.598076e-02 -3.000000e-02
    endloop
  endfacet
  facet normal 0.000000e+00 0.000000e+00 1.000000e+00
    outer loop
      vertex 0.000000e+00 0.000000e+00 -3.000000e-02
      vertex -1.500000e-02 -2.598076e-02 -3.000000e-02
      vertex -1.148050e-02 -2.771639e-02 -3.000000e-02
    endloop
  endfacet
  facet normal 0.000000e+00 0.000000e+00 1.000000e+00
    outer loop
      vertex 0.000000e+00 0.000000e+00 -3.000000e-02
      vertex -1.148050e-02 -2.771639e-02 -3.000000e-02
      vertex -7.764571e-03 -2.897777e-02 -3.000000e-02
    endloop
  endfacet
  facet normal 0.000000e+00 0.000000e+00 1.000000e+00
    outer loop
      vertex 0.000000e+00 0.000000e+00 -3.000000e-02
      vertex -7.764571e-03 -2.897777e-02 -3.000000e-02
      vertex -3.915786e-03 -2.974335e-02 -3.000000e-02
    endloop
  endfacet
  facet normal 0.000000e+00 0.000000e+00 1.000000e+00
    outer loop
      vertex 0.000000e+00 0.000000e+00 -3.000000e-02
      vertex -3.915786e-03 -2.974335e-02 -3.000000e-02
      vertex -5.510911e-18 -3.000000e-02 -3.000000e-02
    endloop
  endfacet
  facet normal 0.000000e+00 0.000000e+00 1.000000e+00
    outer loop
      vertex 0.000000e+00 0.000000e+00 -3.000000e-02
      vertex -5.510911e-18 -3.000000e-02 -3.000000e-02
      vertex 3.915786e-03 -2.974335e-02 -3.000000e-02
    endloop
  endfacet
  facet normal 0.000000e+00 0.000000e+00 1.000000e+00
    outer loop
      vertex 0.000000e+00 0.000000e+00 -3.000000e-02
      vertex 3.915786e-03 -2.974335e-02 -3.000000e-02
      vertex 7.764571e-03 -2.897777e-02 -3.000000e-02
    endloop
  endfacet
  facet normal 0.000000e+00 0.000000e+00 1.000000e+00
    outer loop
      vertex 0.000000e+00 0.000000e+00 -3.000000e-02
      vertex 7.764571e-03 -2.897777e-02 -3.000000e-02
      vertex 1.148050e-02 -2.771639e-02 -3.000000e-02
    endloop
  endfacet
  facet normal 0.000000e+00 0.000000e+00 1.000000e+00
    outer loop
      vertex 0.000000e+00 0.000000e+00 -3.000000e-02
      vertex 1.148050e-02 -2.771639e-02 -3.000000e-02
      vertex 1.500000e-02 -2.598076e-02 -3.000000e-02
    endloop
  endfacet
  facet normal 0.000000e+00 0.000000e+00 1.000000e+00
    outer loop
      vertex 0.000000e+00 0.000000e+00 -3.000000e-02
      vertex 1.500000e-02 -2.598076e-02 -3.000000e-02
      vertex 1.826284e-02 -2.380060e-02 -3.000000e-02
    endloop
  endfacet
  facet normal 0.000000e+00 0.000000e+00 1.000000e+00
    outer loop
      vertex 0.000000e+00 0.000000e+00 -3.000000e-02
      vertex 1.826284e-02 -2.380060e-02 -3.000000e-02
      vertex 2.121320e-02 -2.121320e-02 -3.000000e-02
    endloop
  endfacet
  facet normal 0.000000e+00 0.000000e+00 1.000000e+00
    outer loop
      vertex 0.000000e+00 0.000000e+00 -3.000000e-02
      vertex 2.121320e-02 -2.121320e-02 -3.000000e-02
      vertex 2.380060e-02 -1.826284e-02 -3.000000e-02
    endloop
  endfacet
  facet normal 0.000000e+00 0.000000e+00 1.000000e+00
    outer loop
      vertex 0.000000e+00 0.000000e+00 -3.000000e-02
      vertex 2.380060e-02 -1.826284e-02 -3.000000e-02
      vertex 2.598076e-02 -1.500000e-02 -3.000000e-02
    endloop
  endfacet
  facet normal 0.000000e+00 0.000000e+00 1.000000e+00
    outer loop
      vertex 0.000000e+00 0.000000e+00 -3.000000e-02
      vertex 2.598076e-02 -1.500000e-02 -3.000000e-02
      vertex 2.771639e-02 -1.148050e-02 -3.000000e-02
    endloop
  endfacet
  facet normal 0.000000e+00 0.000000e+00 1.000000e+00
    outer loop
      vertex 0.000000e+00 0.000000e+00 -3.000000e-02
      vertex 2.771639e-02 -1.148050e-02 -3.000000e-02
      vertex 2.897777e-02 -7.764571e-03 -3.000000e-02
    endloop
  endfacet
  facet normal 0.000000e+00 0.000000e+00 1.000000e+00
    outer loop
      vertex 0.000000e+00 0.000000e+00 -3.000000e-02
      vertex 2.897777e-02 -7.764571e-03 -3.000000e-02
      vertex 2.974335e-02 -3.915786e-03 -3.000000e-02
    endloop
  endfacet
  facet normal 0.000000e+00 0.000000e+00 1.000000e+00
    outer loop
      vertex 0.000000e+00 0.000000e+00 -3.000000e-02
      vertex 2.974335e-02 -3.915786e-03 -3.000000e-02
      vertex 3.000000e-02 -7.347881e-18 -3.000000e-02
    endloop
  endfacet
endsolid annulus
