solid drum
  facet normal 9.978589e-01 0.000000e+00 6.540313e-02
    outer loop
      vertex 7.500000e-02 -2.500000e-02 0.000000e+00
      vertex 7.435836e-02 2.500000e-02 9.789464e-03
      vertex 7.435836e-02 -2.500000e-02 9.789464e-03
    endloop
  endfacet
  facet normal 9.978589e-01 0.000000e+00 6.540313e-02
    outer loop
      vertex 7.500000e-02 -2.500000e-02 0.000000e+00
      vertex 7.500000e-02 2.500000e-02 0.000000e+00
      vertex 7.435836e-02 2.500000e-02 9.789464e-03
    endloop
  endfacet
  facet normal 9.807853e-01 0.000000e+00 1.950903e-01
    outer loop
      vertex 7.435836e-02 -2.500000e-02 9.789464e-03
      vertex 7.244444e-02 2.500000e-02 1.941143e-02
      vertex 7.244444e-02 -2.500000e-02 1.941143e-02
    endloop
  endfacet
  facet normal 9.807853e-01 0.000000e+00 1.950903e-01
    outer loop
      vertex 7.435836e-02 -2.500000e-02 9.789464e-03
      vertex 7.435836e-02 2.500000e-02 9.789464e-03
      vertex 7.244444e-02 2.500000e-02 1.941143e-02
    endloop
  endfacet
  facet normal 9.469301e-01 0.000000e+00 3.214395e-01
    outer loop
      vertex 7.244444e-02 -2.500000e-02 1.941143e-02
      vertex 6.929096e-02 2.500000e-02 2.870126e-02
      vertex 6.929096e-02 -2.500000e-02 2.870126e-02
    endloop
  endfacet
  facet normal 9.469301e-01 0.000000e+00 3.214395e-01
    outer loop
      vertex 7.244444e-02 -2.500000e-02 1.941143e-02
      vertex 7.244444e-02 2.500000e-02 1.941143e-02
      vertex 6.929096e-02 2.500000e-02 2.870126e-02
    endloop
  endfacet
  facet normal 8.968727e-01 0.000000e+00 4.422887e-01
    outer loop
      vertex 6.929096e-02 -2.500000e-02 2.870126e-02
      vertex 6.495191e-02 2.500000e-02 3.750000e-02
      vertex 6.495191e-02 -2.500000e-02 3.750000e-02
    endloop
  endfacet
  facet normal 8.968727e-01 0.000000e+00 4.422887e-01
    outer loop
      vertex 6.929096e-02 -2.500000e-02 2.870126e-02
      vertex 6.929096e-02 2.500000e-02 2.870126e-02
      vertex 6.495191e-02 2.500000e-02 3.750000e-02
    endloop
  endfacet
  facet normal 8.314696e-01 0.000000e+00 5.555702e-01
    outer loop
      vertex 6.495191e-02 -2.500000e-02 3.750000e-02
      vertex 5.950150e-02 2.500000e-02 4.565711e-02
      vertex 5.950150e-02 -2.500000e-02 4.565711e-02
    endloop
  endfacet
  facet normal 8.314696e-01 0.000000e+00 5.555702e-01
    outer loop
      vertex 6.495191e-02 -2.500000e-02 3.750000e-02
      vertex 6.495191e-02 2.500000e-02 3.750000e-02
      vertex 5.950150e-02 2.500000e-02 4.565711e-02
    endloop
  endfacet
  facet normal 7.518398e-01 0.000000e+00 6.593458e-01
    outer loop
      vertex 5.950150e-02 -2.500000e-02 4.565711e-02
      vertex 5.303301e-02 2.500000e-02 5.303301e-02
      vertex 5.303301e-02 -2.500000e-02 5.303301e-02
    endloop
  endfacet
  facet normal 7.518398e-01 0.000000e+00 6.593458e-01
    outer loop
      vertex 5.950150e-02 -2.500000e-02 4.565711e-02
      vertex 5.950150e-02 2.500000e-02 4.565711e-02
      vertex 5.303301e-02 2.500000e-02 5.303301e-02
    endloop
  endfacet
  facet normal 6.593458e-01 0.000000e+00 7.518398e-01
    outer loop
      vertex 5.303301e-02 -2.500000e-02 5.303301e-02
      vertex 4.565711e-02 2.500000e-02 5.950150e-02
      vertex 4.565711e-02 -2.500000e-02 5.950150e-02
    endloop
  endfacet
  facet normal 6.593458e-01 0.000000e+00 7.518398e-01
    outer loop
      vertex 5.303301e-02 -2.500000e-02 5.303301e-02
      vertex 5.303301e-02 2.500000e-02 5.303301e-02
      vertex 4.565711e-02 2.500000e-02 5.950150e-02
    endloop
  endfacet
  facet normal 5.555702e-01 0.000000e+00 8.314696e-01
    outer loop
      vertex 4.565711e-02 -2.500000e-02 5.950150e-02
      vertex 3.750000e-02 2.500000e-02 6.495191e-02
      vertex 3.750000e-02 -2.500000e-02 6.495191e-02
    endloop
  endfacet
  facet normal 5.555702e-01 0.000000e+00 8.314696e-01
    outer loop
      vertex 4.565711e-02 -2.500000e-02 5.950150e-02
      vertex 4.565711e-02 2.500000e-02 5.950150e-02
      vertex 3.750000e-02 2.500000e-02 6.495191e-02
    endloop
  endfacet
  facet normal 4.422887e-01 0.000000e+00 8.968727e-01
    outer loop
      vertex 3.750000e-02 -2.500000e-02 6.495191e-02
      vertex 2.870126e-02 2.500000e-02 6.929096e-02
      vertex 2.870126e-02 -2.500000e-02 6.929096e-02
    endloop
  endfacet
  facet normal 4.422887e-01 0.000000e+00 8.968727e-01
    outer loop
      vertex 3.750000e-02 -2.500000e-02 6.495191e-02
      vertex 3.750000e-02 2.500000e-02 6.495191e-02
      vertex 2.870126e-02 2.500000e-02 6.929096e-02
    endloop
  endfacet
  facet normal 3.214395e-01 0.000000e+00 9.469301e-01
    outer loop
      vertex 2.870126e-02 -2.500000e-02 6.929096e-02
      vertex 1.941143e-02 2.500000e-02 7.244444e-02
      vertex 1.941143e-02 -2.500000e-02 7.244444e-02
    endloop
  endfacet
  facet normal 3.214395e-01 0.000000e+00 9.469301e-01
    outer loop
      vertex 2.870126e-02 -2.500000e-02 6.929096e-02
      vertex 2.870126e-02 2.500000e-02 6.929096e-02
      vertex 1.941143e-02 2.500000e-02 7.244444e-02
    endloop
  endfacet
  facet normal 1.950903e-01 0.000000e+00 9.807853e-01
    outer loop
      vertex 1.941143e-02 -2.500000e-02 7.244444e-02
      vertex 9.789464e-03 2.500000e-02 7.435836e-02
      vertex 9.789464e-03 -2.500000e-02 7.435836e-02
    endloop
  endfacet
  facet normal 1.950903e-01 0.000000e+00 9.807853e-01
    outer loop
      vertex 1.941143e-02 -2.500000e-02 7.244444e-02
      vertex 1.941143e-02 2.500000e-02 7.244444e-02
      vertex 9.789464e-03 2.500000e-02 7.435836e-02
    endloop
  endfacet
  facet normal 6.540313e-02 0.000000e+00 9.978589e-01
    outer loop
      vertex 9.789464e-03 -2.500000e-02 7.435836e-02
      vertex 4.592425e-18 2.500000e-02 7.500000e-02
      vertex 4.592425e-18 -2.500000e-02 7.500000e-02
    endloop
  endfacet
  facet normal 6.540313e-02 0.000000e+00 9.978589e-01
    outer loop
      vertex 9.789464e-03 -2.500000e-02 7.435836e-02
      vertex 9.789464e-03 2.500000e-02 7.435836e-02
      vertex 4.592425e-18 2.500000e-02 7.500000e-02
    endloop
  endfacet
  facet normal -6.540313e-02 0.000000e+00 9.978589e-01
    outer loop
      vertex 4.592425e-18 -2.500000e-02 7.500000e-02
      vertex -9.789464e-03 2.500000e-02 7.435836e-02
      vertex -9.789464e-03 -2.500000e-02 7.435836e-02
    endloop
  endfacet
  facet normal -6.540313e-02 0.000000e+00 9.978589e-01
    outer loop
      vertex 4.592425e-18 -2.500000e-02 7.500000e-02
      vertex 4.592425e-18 2.500000e-02 7.500000e-02
      vertex -9.789464e-03 2.500000e-02 7.435836e-02
    endloop
  endfacet
  facet normal -1.950903e-01 0.000000e+00 9.807853e-01
    outer loop
      vertex -9.789464e-03 -2.500000e-02 7.435836e-02
      vertex -1.941143e-02 2.500000e-02 7.244444e-02
      vertex -1.941143e-02 -2.500000e-02 7.244444e-02
    endloop
  endfacet
  facet normal -1.950903e-01 0.000000e+00 9.807853e-01
    outer loop
      vertex -9.789464e-03 -2.500000e-02 7.435836e-02
      vertex -9.789464e-03 2.500000e-02 7.435836e-02
      vertex -1.941143e-02 2.500000e-02 7.244444e-02
    endloop
  endfacet
  facet normal -3.214395e-01 0.000000e+00 9.469301e-01
    outer loop
      vertex -1.941143e-02 -2.500000e-02 7.244444e-02
      vertex -2.870126e-02 2.500000e-02 6.929096e-02
      vertex -2.870126e-02 -2.500000e-02 6.929096e-02
    endloop
  endfacet
  facet normal -3.214395e-01 0.000000e+00 9.469301e-01
    outer loop
      vertex -1.941143e-02 -2.500000e-02 7.244444e-02
      vertex -1.941143e-02 2.500000e-02 7.244444e-02
      vertex -2.870126e-02 2.500000e-02 6.929096e-02
    endloop
  endfacet
  facet normal -4.422887e-01 0.000000e+00 8.968727e-01
    outer loop
      vertex -2.870126e-02 -2.500000e-02 6.929096e-02
      vertex -3.750000e-02 2.500000e-02 6.495191e-02
      vertex -3.750000e-02 -2.500000e-02 6.495191e-02
    endloop
  endfacet
  facet normal -4.422887e-01 0.000000e+00 8.968727e-01
    outer loop
      vertex -2.870126e-02 -2.500000e-02 6.929096e-02
      vertex -2.870126e-02 2.500000e-02 6.929096e-02
      vertex -3.750000e-02 2.500000e-02 6.495191e-02
    endloop
  endfacet
  facet normal -5.555702e-01 0.000000e+00 8.314696e-01
    outer loop
      vertex -3.750000e-02 -2.500000e-02 6.495191e-02
      vertex -4.565711e-02 2.500000e-02 5.950150e-02
      vertex -4.565711e-02 -2.500000e-02 5.950150e-02
    endloop
  endfacet
  facet normal -5.555702e-01 0.000000e+00 8.314696e-01
    outer loop
      vertex -3.750000e-02 -2.500000e-02 6.495191e-02
      vertex -3.750000e-02 2.500000e-02 6.495191e-02
      vertex -4.565711e-02 2.500000e-02 5.950150e-02
    endloop
  endfacet
  facet normal -6.593458e-01 0.000000e+00 7.518398e-01
    outer loop
      vertex -4.565711e-02 -2.500000e-02 5.950150e-02
      vertex -5.303301e-02 2.500000e-02 5.303301e-02
      vertex -5.303301e-02 -2.500000e-02 5.303301e-02
    endloop
  endfacet
  facet normal -6.593458e-01 0.000000e+00 7.518398e-01
    outer loop
      vertex -4.565711e-02 -2.500000e-02 5.950150e-02
      vertex -4.565711e-02 2.500000e-02 5.950150e-02
      vertex -5.303301e-02 2.500000e-02 5.303301e-02
    endloop
  endfacet
  facet normal -7.518398e-01 0.000000e+00 6.593458e-01
    outer loop
      vertex -5.303301e-02 -2.500000e-02 5.303301e-02
      vertex -5.950150e-02 2.500000e-02 4.565711e-02
      vertex -5.950150e-02 -2.500000e-02 4.565711e-02
    endloop
  endfacet
  facet normal -7.518398e-01 0.000000e+00 6.593458e-01
    outer loop
      vertex -5.303301e-02 -2.500000e-02 5.303301e-02
      vertex -5.303301e-02 2.500000e-02 5.303301e-02
      vertex -5.950150e-02 2.500000e-02 4.565711e-02
    endloop
  endfacet
  facet normal -8.314696e-01 0.000000e+00 5.555702e-01
    outer loop
      vertex -5.950150e-02 -2.500000e-02 4.565711e-02
      vertex -6.495191e-02 2.500000e-02 3.750000e-02
      vertex -6.495191e-02 -2.500000e-02 3.750000e-02
    endloop
  endfacet
  facet normal -8.314696e-01 0.000000e+00 5.555702e-01
    outer loop
      vertex -5.950150e-02 -2.500000e-02 4.565711e-02
      vertex -5.950150e-02 2.500000e-02 4.565711e-02
      vertex -6.495191e-02 2.500000e-02 3.750000e-02
    endloop
  endfacet
  facet normal -8.968727e-01 0.000000e+00 4.422887e-01
    outer loop
      vertex -6.495191e-02 -2.500000e-02 3.750000e-02
      vertex -6.929096e-02 2.500000e-02 2.870126e-02
      vertex -6.929096e-02 -2.500000e-02 2.870126e-02
    endloop
  endfacet
  facet normal -8.968727e-01 0.000000e+00 4.422887e-01
    outer loop
      vertex -6.495191e-02 -2.500000e-02 3.750000e-02
      vertex -6.495191e-02 2.500000e-02 3.750000e-02
      vertex -6.929096e-02 2.500000e-02 2.870126e-02
    endloop
  endfacet
  facet normal -9.469301e-01 0.000000e+00 3.214395e-01
    outer loop
      vertex -6.929096e-02 -2.500000e-02 2.870126e-02
      vertex -7.244444e-02 2.500000e-02 1.941143e-02
      vertex -7.244444e-02 -2.500000e-02 1.941143e-02
    endloop
  endfacet
  facet normal -9.469301e-01 0.000000e+00 3.214395e-01
    outer loop
      vertex -6.929096e-02 -2.500000e-02 2.870126e-02
      vertex -6.929096e-02 2.500000e-02 2.870126e-02
      vertex -7.244444e-02 2.500000e-02 1.941143e-02
    endloop
  endfacet
  facet normal -9.807853e-01 0.000000e+00 1.950903e-01
    outer loop
      vertex -7.244444e-02 -2.500000e-02 1.941143e-02
      vertex -7.435836e-02 2.500000e-02 9.789464e-03
      vertex -7.435836e-02 -2.500000e-02 9.789464e-03
    endloop
  endfacet
  facet normal -9.807853e-01 0.000000e+00 1.950903e-01
    outer loop
      vertex -7.244444e-02 -2.500000e-02 1.941143e-02
      vertex -7.244444e-02 2.500000e-02 1.941143e-02
      vertex -7.435836e-02 2.500000e-02 9.789464e-03
    endloop
  endfacet
  facet normal -9.978589e-01 0.000000e+00 6.540313e-02
    outer loop
      vertex -7.435836e-02 -2.500000e-02 9.789464e-03
      vertex -7.500000e-02 2.500000e-02 9.184851e-18
      vertex -7.500000e-02 -2.500000e-02 9.184851e-18
    endloop
  endfacet
  facet normal -9.978589e-01 0.000000e+00 6.540313e-02
    outer loop
      vertex -7.435836e-02 -2.500000e-02 9.789464e-03
      vertex -7.435836e-02 2.500000e-02 9.789464e-03
      vertex -7.500000e-02 2.500000e-02 9.184851e-18
    endloop
  endfacet
  facet normal -9.978589e-01 0.000000e+00 -6.540313e-02
    outer loop
      vertex -7.500000e-02 -2.500000e-02 9.184851e-18
      vertex -7.435836e-02 2.500000e-02 -9.789464e-03
      vertex -7.435836e-02 -2.500000e-02 -9.789464e-03
    endloop
  endfacet
  facet normal -9.978589e-01 0.000000e+00 -6.540313e-02
    outer loop
      vertex -7.500000e-02 -2.500000e-02 9.184851e-18
      vertex -7.500000e-02 2.500000e-02 9.184851e-18
      vertex -7.435836e-02 2.500000e-02 -9.789464e-03
    endloop
  endfacet
  facet normal -9.807853e-01 0.000000e+00 -1.950903e-01
    outer loop
      vertex -7.435836e-02 -2.500000e-02 -9.789464e-03
      vertex -7.244444e-02 2.500000e-02 -1.941143e-02
      vertex -7.244444e-02 -2.500000e-02 -1.941143e-02
    endloop
  endfacet
  facet normal -9.807853e-01 0.000000e+00 -1.950903e-01
    outer loop
      vertex -7.435836e-02 -2.500000e-02 -9.789464e-03
      vertex -7.435836e-02 2.500000e-02 -9.789464e-03
      vertex -7.244444e-02 2.500000e-02 -1.941143e-02
    endloop
  endfacet
  facet normal -9.469301e-01 0.000000e+00 -3.214395e-01
    outer loop
      vertex -7.244444e-02 -2.500000e-02 -1.941143e-02
      vertex -6.929096e-02 2.500000e-02 -2.870126e-02
      vertex -6.929096e-02 -2.500000e-02 -2.870126e-02
    endloop
  endfacet
  facet normal -9.469301e-01 0.000000e+00 -3.214395e-01
    outer loop
      vertex -7.244444e-02 -2.500000e-02 -1.941143e-02
      vertex -7.244444e-02 2.500000e-02 -1.941143e-02
      vertex -6.929096e-02 2.500000e-02 -2.870126e-02
    endloop
  endfacet
  facet normal -8.968727e-01 0.000000e+00 -4.422887e-01
    outer loop
      vertex -6.929096e-02 -2.500000e-02 -2.870126e-02
      vertex -6.495191e-02 2.500000e-02 -3.750000e-02
      vertex -6.495191e-02 -2.500000e-02 -3.750000e-02
    endloop
  endfacet
  facet normal -8.968727e-01 0.000000e+00 -4.422887e-01
    outer loop
      vertex -6.929096e-02 -2.500000e-02 -2.870126e-02
      vertex -6.929096e-02 2.500000e-02 -2.870126e-02
      vertex -6.495191e-02 2.500000e-02 -3.750000e-02
    endloop
  endfacet
  facet normal -8.314696e-01 0.000000e+00 -5.555702e-01
    outer loop
      vertex -6.495191e-02 -2.500000e-02 -3.750000e-02
      vertex -5.950150e-02 2.500000e-02 -4.565711e-02
      vertex -5.950150e-02 -2.500000e-02 -4.565711e-02
    endloop
  endfacet
  facet normal -8.314696e-01 0.000000e+00 -5.555702e-01
    outer loop
      vertex -6.495191e-02 -2.500000e-02 -3.750000e-02
      vertex -6.495191e-02 2.500000e-02 -3.750000e-02
      vertex -5.950150e-02 2.500000e-02 -4.565711e-02
    endloop
  endfacet
  facet normal -7.518398e-01 0.000000e+00 -6.593458e-01
    outer loop
      vertex -5.950150e-02 -2.500000e-02 -4.565711e-02
      vertex -5.303301e-02 2.500000e-02 -5.303301e-02
      vertex -5.303301e-02 -2.500000e-02 -5.303301e-02
    endloop
  endfacet
  facet normal -7.518398e-01 0.000000e+00 -6.593458e-01
    outer loop
      vertex -5.950150e-02 -2.500000e-02 -4.565711e-02
      vertex -5.950150e-02 2.500000e-02 -4.565711e-02
      vertex -5.303301e-02 2.500000e-02 -5.303301e-02
    endloop
  endfacet
  facet normal -6.593458e-01 0.000000e+00 -7.518398e-01
    outer loop
      vertex -5.303301e-02 -2.500000e-02 -5.303301e-02
      vertex -4.565711e-02 2.500000e-02 -5.950150e-02
      vertex -4.565711e-02 -2.500000e-02 -5.950150e-02
    endloop
  endfacet
  facet normal -6.593458e-01 0.000000e+00 -7.518398e-01
    outer loop
      vertex -5.303301e-02 -2.500000e-02 -5.303301e-02
      vertex -5.303301e-02 2.500000e-02 -5.303301e-02
      vertex -4.565711e-02 2.500000e-02 -5.950150e-02
    endloop
  endfacet
  facet normal -5.555702e-01 0.000000e+00 -8.314696e-01
    outer loop
      vertex -4.565711e-02 -2.500000e-02 -5.950150e-02
      vertex -3.750000e-02 2.500000e-02 -6.495191e-02
      vertex -3.750000e-02 -2.500000e-02 -6.495191e-02
    endloop
  endfacet
  facet normal -5.555702e-01 0.000000e+00 -8.314696e-01
    outer loop
      vertex -4.565711e-02 -2.500000e-02 -5.950150e-02
      vertex -4.565711e-02 2.500000e-02 -5.950150e-02
      vertex -3.750000e-02 2.500000e-02 -6.495191e-02
    endloop
  endfacet
  facet normal -4.422887e-01 0.000000e+00 -8.968727e-01
    outer loop
      vertex -3.750000e-02 -2.500000e-02 -6.495191e-02
      vertex -2.870126e-02 2.500000e-02 -6.929096e-02
      vertex -2.870126e-02 -2.500000e-02 -6.929096e-02
    endloop
  endfacet
  facet normal -4.422887e-01 0.000000e+00 -8.968727e-01
    outer loop
      vertex -3.750000e-02 -2.500000e-02 -6.495191e-02
      vertex -3.750000e-02 2.500000e-02 -6.495191e-02
      vertex -2.870126e-02 2.500000e-02 -6.929096e-02
    endloop
  endfacet
  facet normal -3.214395e-01 0.000000e+00 -9.469301e-01
    outer loop
      vertex -2.870126e-02 -2.500000e-02 -6.929096e-02
      vertex -1.941143e-02 2.500000e-02 -7.244444e-02
      vertex -1.941143e-02 -2.500000e-02 -7.244444e-02
    endloop
  endfacet
  facet normal -3.214395e-01 0.000000e+00 -9.469301e-01
    outer loop
      vertex -2.870126e-02 -2.500000e-02 -6.929096e-02
      vertex -2.870126e-02 2.500000e-02 -6.929096e-02
      vertex -1.941143e-02 2.500000e-02 -7.244444e-02
    endloop
  endfacet
  facet normal -1.950903e-01 0.000000e+00 -9.807853e-01
    outer loop
      vertex -1.941143e-02 -2.500000e-02 -7.244444e-02
      vertex -9.789464e-03 2.500000e-02 -7.435836e-02
      vertex -9.789464e-03 -2.500000e-02 -7.435836e-02
    endloop
  endfacet
  facet normal -1.950903e-01 0.000000e+00 -9.807853e-01
    outer loop
      vertex -1.941143e-02 -2.500000e-02 -7.244444e-02
      vertex -1.941143e-02 2.500000e-02 -7.244444e-02
      vertex -9.789464e-03 2.500000e-02 -7.435836e-02
    endloop
  endfacet
  facet normal -6.540313e-02 0.000000e+00 -9.978589e-01
    outer loop
      vertex -9.789464e-03 -2.500000e-02 -7.435836e-02
      vertex -1.377728e-17 2.500000e-02 -7.500000e-02
      vertex -1.377728e-17 -2.500000e-02 -7.500000e-02
    endloop
  endfacet
  facet normal -6.540313e-02 0.000000e+00 -9.978589e-01
    outer loop
      vertex -9.789464e-03 -2.500000e-02 -7.435836e-02
      vertex -9.789464e-03 2.500000e-02 -7.435836e-02
      vertex -1.377728e-17 2.500000e-02 -7.500000e-02
    endloop
  endfacet
  facet normal 6.540313e-02 0.000000e+00 -9.978589e-01
    outer loop
      vertex -1.377728e-17 -2.500000e-02 -7.500000e-02
      vertex 9.789464e-03 2.500000e-02 -7.435836e-02
      vertex 9.789464e-03 -2.500000e-02 -7.435836e-02
    endloop
  endfacet
  facet normal 6.540313e-02 0.000000e+00 -9.978589e-01
    outer loop
      vertex -1.377728e-17 -2.500000e-02 -7.500000e-02
      vertex -1.377728e-17 2.500000e-02 -7.500000e-02
      vertex 9.789464e-03 2.500000e-02 -7.435836e-02
    endloop
  endfacet
  facet normal 1.950903e-01 0.000000e+00 -9.807853e-01
    outer loop
      vertex 9.789464e-03 -2.500000e-02 -7.435836e-02
      vertex 1.941143e-02 2.500000e-02 -7.244444e-02
      vertex 1.941143e-02 -2.500000e-02 -7.244444e-02
    endloop
  endfacet
  facet normal 1.950903e-01 0.000000e+00 -9.807853e-01
    outer loop
      vertex 9.789464e-03 -2.500000e-02 -7.435836e-02
      vertex 9.789464e-03 2.500000e-02 -7.435836e-02
      vertex 1.941143e-02 2.500000e-02 -7.244444e-02
    endloop
  endfacet
  facet normal 3.214395e-01 0.000000e+00 -9.469301e-01
    outer loop
      vertex 1.941143e-02 -2.500000e-02 -7.244444e-02
      vertex 2.870126e-02 2.500000e-02 -6.929096e-02
      vertex 2.870126e-02 -2.500000e-02 -6.929096e-02
    endloop
  endfacet
  facet normal 3.214395e-01 0.000000e+00 -9.469301e-01
    outer loop
      vertex 1.941143e-02 -2.500000e-02 -7.244444e-02
      vertex 1.941143e-02 2.500000e-02 -7.244444e-02
      vertex 2.870126e-02 2.500000e-02 -6.929096e-02
    endloop
  endfacet
  facet normal 4.422887e-01 0.000000e+00 -8.968727e-01
    outer loop
      vertex 2.870126e-02 -2.500000e-02 -6.929096e-02
      vertex 3.750000e-02 2.500000e-02 -6.495191e-02
      vertex 3.750000e-02 -2.500000e-02 -6.495191e-02
    endloop
  endfacet
  facet normal 4.422887e-01 0.000000e+00 -8.968727e-01
    outer loop
      vertex 2.870126e-02 -2.500000e-02 -6.929096e-02
      vertex 2.870126e-02 2.500000e-02 -6.929096e-02
      vertex 3.750000e-02 2.500000e-02 -6.495191e-02
    endloop
  endfacet
  facet normal 5.555702e-01 0.000000e+00 -8.314696e-01
    outer loop
      vertex 3.750000e-02 -2.500000e-02 -6.495191e-02
      vertex 4.565711e-02 2.500000e-02 -5.950150e-02
      vertex 4.565711e-02 -2.500000e-02 -5.950150e-02
    endloop
  endfacet
  facet normal 5.555702e-01 0.000000e+00 -8.314696e-01
    outer loop
      vertex 3.750000e-02 -2.500000e-02 -6.495191e-02
      vertex 3.750000e-02 2.500000e-02 -6.495191e-02
      vertex 4.565711e-02 2.500000e-02 -5.950150e-02
    endloop
  endfacet
  facet normal 6.593458e-01 0.000000e+00 -7.518398e-01
    outer loop
      vertex 4.565711e-02 -2.500000e-02 -5.950150e-02
      vertex 5.303301e-02 2.500000e-02 -5.303301e-02
      vertex 5.303301e-02 -2.500000e-02 -5.303301e-02
    endloop
  endfacet
  facet normal 6.593458e-01 0.000000e+00 -7.518398e-01
    outer loop
      vertex 4.565711e-02 -2.500000e-02 -5.950150e-02
      vertex 4.565711e-02 2.500000e-02 -5.950150e-02
      vertex 5.303301e-02 2.500000e-02 -5.303301e-02
    endloop
  endfacet
  facet normal 7.518398e-01 0.000000e+00 -6.593458e-01
    outer loop
      vertex 5.303301e-02 -2.500000e-02 -5.303301e-02
      vertex 5.950150e-02 2.500000e-02 -4.565711e-02
      vertex 5.950150e-02 -2.500000e-02 -4.565711e-02
    endloop
  endfacet
  facet normal 7.518398e-01 0.000000e+00 -6.593458e-01
    outer loop
      vertex 5.303301e-02 -2.500000e-02 -5.303301e-02
      vertex 5.303301e-02 2.500000e-02 -5.303301e-02
      vertex 5.950150e-02 2.500000e-02 -4.565711e-02
    endloop
  endfacet
  facet normal 8.314696e-01 0.000000e+00 -5.555702e-01
    outer loop
      vertex 5.950150e-02 -2.500000e-02 -4.565711e-02
      vertex 6.495191e-02 2.500000e-02 -3.750000e-02
      vertex 6.495191e-02 -2.500000e-02 -3.750000e-02
    endloop
  endfacet
  facet normal 8.314696e-01 0.000000e+00 -5.555702e-01
    outer loop
      vertex 5.950150e-02 -2.500000e-02 -4.565711e-02
      vertex 5.950150e-02 2.500000e-02 -4.565711e-02
      vertex 6.495191e-02 2.500000e-02 -3.750000e-02
    endloop
  endfacet
  facet normal 8.968727e-01 0.000000e+00 -4.422887e-01
    outer loop
      vertex 6.495191e-02 -2.500000e-02 -3.750000e-02
      vertex 6.929096e-02 2.500000e-02 -2.870126e-02
      vertex 6.929096e-02 -2.500000e-02 -2.870126e-02
    endloop
  endfacet
  facet normal 8.968727e-01 0.000000e+00 -4.422887e-01
    outer loop
      vertex 6.495191e-02 -2.500000e-02 -3.750000e-02
      vertex 6.495191e-02 2.500000e-02 -3.750000e-02
      vertex 6.929096e-02 2.500000e-02 -2.870126e-02
    endloop
  endfacet
  facet normal 9.469301e-01 0.000000e+00 -3.214395e-01
    outer loop
      vertex 6.929096e-02 -2.500000e-02 -2.870126e-02
      vertex 7.244444e-02 2.500000e-02 -1.941143e-02
      vertex 7.244444e-02 -2.500000e-02 -1.941143e-02
    endloop
  endfacet
  facet normal 9.469301e-01 0.000000e+00 -3.214395e-01
    outer loop
      vertex 6.929096e-02 -2.500000e-02 -2.870126e-02
      vertex 6.929096e-02 2.500000e-02 -2.870126e-02
      vertex 7.244444e-02 2.500000e-02 -1.941143e-02
    endloop
  endfacet
  facet normal 9.807853e-01 0.000000e+00 -1.950903e-01
    outer loop
      vertex 7.244444e-02 -2.500000e-02 -1.941143e-02
      vertex 7.435836e-02 2.500000e-02 -9.789464e-03
      vertex 7.435836e-02 -2.500000e-02 -9.789464e-03
    endloop
  endfacet
  facet normal 9.807853e-01 0.000000e+00 -1.950903e-01
    outer loop
      vertex 7.244444e-02 -2.500000e-02 -1.941143e-02
      vertex 7.244444e-02 2.500000e-02 -1.941143e-02
      vertex 7.435836e-02 2.500000e-02 -9.789464e-03
    endloop
  endfacet
  facet normal 9.978589e-01 0.000000e+00 -6.540313e-02
    outer loop
      vertex 7.435836e-02 -2.500000e-02 -9.789464e-03
      vertex 7.500000e-02 2.500000e-02 -1.836970e-17
      vertex 7.500000e-02 -2.500000e-02 -1.836970e-17
    endloop
  endfacet
  facet normal 9.978589e-01 0.000000e+00 -6.540313e-02
    outer loop
      vertex 7.435836e-02 -2.500000e-02 -9.789464e-03
      vertex 7.435836e-02 2.500000e-02 -9.789464e-03
      vertex 7.500000e-02 2.500000e-02 -1.836970e-17
    endloop
  endfacet
endsolid drum
